<svg xmlns="http://www.w3.org/2000/svg" font-family="Helvetica,Arial,sans-serif" viewBox="0 0 700 225" width="700" height="225">
<rect width="700" height="225" fill="white"/>
<g transform="translate(60 60) rotate(-12) skewX(8)"><rect x="-4" y="-4" width="98" height="80" fill="white" stroke="#16283C" stroke-width="1.6"/><rect x="0" y="0" width="18" height="18" fill="#16283C"/><rect x="0" y="36" width="18" height="18" fill="#16283C"/><rect x="18" y="18" width="18" height="18" fill="#16283C"/><rect x="18" y="54" width="18" height="18" fill="#16283C"/><rect x="36" y="0" width="18" height="18" fill="#16283C"/><rect x="36" y="36" width="18" height="18" fill="#16283C"/><rect x="54" y="18" width="18" height="18" fill="#16283C"/><rect x="54" y="54" width="18" height="18" fill="#16283C"/><rect x="72" y="0" width="18" height="18" fill="#16283C"/><rect x="72" y="36" width="18" height="18" fill="#16283C"/></g><g transform="translate(220 50) rotate(10) skewX(-14)"><rect x="-4" y="-4" width="98" height="80" fill="white" stroke="#16283C" stroke-width="1.6"/><rect x="0" y="0" width="18" height="18" fill="#16283C"/><rect x="0" y="36" width="18" height="18" fill="#16283C"/><rect x="18" y="18" width="18" height="18" fill="#16283C"/><rect x="18" y="54" width="18" height="18" fill="#16283C"/><rect x="36" y="0" width="18" height="18" fill="#16283C"/><rect x="36" y="36" width="18" height="18" fill="#16283C"/><rect x="54" y="18" width="18" height="18" fill="#16283C"/><rect x="54" y="54" width="18" height="18" fill="#16283C"/><rect x="72" y="0" width="18" height="18" fill="#16283C"/><rect x="72" y="36" width="18" height="18" fill="#16283C"/></g><g transform="translate(390 66) rotate(-6) skewX(20)"><rect x="-4" y="-4" width="98" height="80" fill="white" stroke="#16283C" stroke-width="1.6"/><rect x="0" y="0" width="18" height="18" fill="#16283C"/><rect x="0" y="36" width="18" height="18" fill="#16283C"/><rect x="18" y="18" width="18" height="18" fill="#16283C"/><rect x="18" y="54" width="18" height="18" fill="#16283C"/><rect x="36" y="0" width="18" height="18" fill="#16283C"/><rect x="36" y="36" width="18" height="18" fill="#16283C"/><rect x="54" y="18" width="18" height="18" fill="#16283C"/><rect x="54" y="54" width="18" height="18" fill="#16283C"/><rect x="72" y="0" width="18" height="18" fill="#16283C"/><rect x="72" y="36" width="18" height="18" fill="#16283C"/></g><g transform="translate(550 52) rotate(14) skewX(4)"><rect x="-4" y="-4" width="98" height="80" fill="white" stroke="#16283C" stroke-width="1.6"/><rect x="0" y="0" width="18" height="18" fill="#16283C"/><rect x="0" y="36" width="18" height="18" fill="#16283C"/><rect x="18" y="18" width="18" height="18" fill="#16283C"/><rect x="18" y="54" width="18" height="18" fill="#16283C"/><rect x="36" y="0" width="18" height="18" fill="#16283C"/><rect x="36" y="36" width="18" height="18" fill="#16283C"/><rect x="54" y="18" width="18" height="18" fill="#16283C"/><rect x="54" y="54" width="18" height="18" fill="#16283C"/><rect x="72" y="0" width="18" height="18" fill="#16283C"/><rect x="72" y="36" width="18" height="18" fill="#16283C"/></g><text x="60" y="185" font-size="13.5" fill="#16283C">서로 다른 포즈의 평면 보드 N장 → 각 뷰의 homography Hᵢ → K의 제약 2개씩</text><text x="60" y="208" font-size="13.5" fill="#8A97A3">N ≥ 3이면 폐형해 → 전 파라미터(+왜곡) 재투영 오차 비선형 최적화(LM)</text>
</svg>